PathFileType	4	(X/Y/Z)	SUBJ26_2_walk_RCNL2025.trc
DataRate	CameraRate	NumFrames	NumMarkers	Units	OrigDataRate	OrigDataStartFrame	OrigNumFrames
100	100	11	25	mm	100	1	341
Frame#	Time	R_Shoulder			L_Shoulder			C7			J_Notch			R_Elbow			L_Elbow			R_Wrist			L_Wrist			R_Asis			L_Asis			Sacral			Thoracic			Sternum			R_Thigh_Lateral			R_Knee_Lateral			R_Shank_Lateral			R_Ankle_Lateral			R_Heel			R_Toe			L_Thigh_Lateral			L_Knee_Lateral			L_Shank_Lateral			L_Ankle_Lateral			L_Heel			L_Toe		
		X1	Y1	Z1	X2	Y2	Z2	X3	Y3	Z3	X4	Y4	Z4	X5	Y5	Z5	X6	Y6	Z6	X7	Y7	Z7	X8	Y8	Z8	X9	Y9	Z9	X10	Y10	Z10	X11	Y11	Z11	X12	Y12	Z12	X13	Y13	Z13	X14	Y14	Z14	X15	Y15	Z15	X16	Y16	Z16	X17	Y17	Z17	X18	Y18	Z18	X19	Y19	Z19	X20	Y20	Z20	X21	Y21	Z21	X22	Y22	Z22	X23	Y23	Z23	X24	Y24	Z24	X25	Y25	Z25
1	0.00000000	-1607.140503	1311.366699	62.543732	-1632.319458	1324.444458	-272.342896	-1699.092529	1384.888184	-87.649254	-1559.442871	1279.141968	-115.175766	-1715.745239	1001.858521	150.672684	-1696.523315	1006.521179	-375.455261	-1658.388123	755.529846	139.769466	-1589.477844	785.527496	-402.108612	-1595.545044	906.196716	21.976732	-1640.776367	923.616394	-278.198639	-1820.995239	933.498047	-94.801506	-1796.616577	1045.483643	-96.789032	-1527.448730	1016.534851	-113.284874	-1619.015747	580.216553	92.522461	-1565.298950	446.009308	42.865067	-1645.759521	324.584137	79.766960	-1773.376831	125.771065	-1.056255	-1821.908325	138.056595	-63.887402	-1671.458862	61.664314	-23.593552	-1690.030273	607.264709	-303.007477	-1690.978882	439.315002	-220.546478	-1710.567993	258.729889	-278.860840	-1748.151489	58.627876	-187.007767	-1812.167358	40.520206	-138.772705	-1632.572266	43.321255	-146.011414
2	0.01000000	-1595.983154	1311.214478	62.521507	-1619.320068	1323.922241	-272.426086	-1686.977417	1384.629150	-88.473663	-1547.689575	1278.495117	-115.146858	-1706.712769	1001.909485	149.567642	-1678.917603	1006.079102	-376.996216	-1650.726135	755.270874	138.552429	-1566.700439	787.569092	-402.959457	-1584.258423	906.437317	21.384857	-1631.026367	922.915588	-279.208893	-1809.284912	933.110046	-94.463951	-1784.876099	1045.330444	-97.188240	-1516.406250	1017.032837	-112.258484	-1601.121460	581.025818	90.883270	-1542.990723	448.246460	41.289822	-1617.107422	322.663696	79.065796	-1733.226562	116.250450	-0.347870	-1782.793457	124.528183	-63.215027	-1626.849487	59.451145	-22.253956	-1682.038574	607.032593	-302.768799	-1687.390381	439.271362	-220.252930	-1708.783936	258.761993	-278.579102	-1747.956909	58.779751	-186.869110	-1812.102539	40.889843	-138.755096	-1632.427246	43.270748	-145.809250
3	0.02000000	-1584.845947	1310.873413	62.529701	-1606.258301	1323.201416	-272.381836	-1674.882935	1384.182495	-89.254890	-1536.118530	1277.674194	-115.117355	-1697.535645	1001.784241	148.637756	-1661.338623	1005.508484	-378.443237	-1642.746765	754.876770	137.570042	-1544.034973	789.580597	-403.713608	-1572.189331	906.503479	20.797813	-1620.680786	922.095642	-280.233612	-1797.521362	932.566772	-94.074081	-1773.054321	1045.002563	-97.438301	-1504.807007	1017.224731	-111.492088	-1583.517090	581.731689	89.241966	-1521.601074	450.330414	39.645351	-1588.833130	320.801788	78.346611	-1691.947754	106.966385	0.426916	-1742.411987	111.192497	-62.383053	-1581.738770	57.837692	-21.037500	-1674.176636	606.743347	-302.588959	-1683.818237	439.261688	-219.968155	-1707.077271	258.835693	-278.316010	-1747.770630	58.972641	-186.713852	-1812.051514	41.342655	-138.703125	-1632.395386	43.234856	-145.691437
4	0.03000000	-1573.700195	1310.344238	62.562843	-1593.069458	1322.286255	-272.188995	-1662.811768	1383.546753	-89.984467	-1524.723633	1276.683716	-115.103157	-1688.173218	1001.484985	147.882843	-1643.804321	1004.817627	-379.789856	-1634.438599	754.340179	136.828091	-1521.510681	791.560089	-404.366501	-1559.703735	906.349487	20.204926	-1609.867676	921.146301	-281.168671	-1785.692261	931.887085	-93.636581	-1761.158936	1044.500488	-97.536163	-1493.101196	1017.075745	-111.017372	-1566.303345	582.269775	87.585228	-1501.186035	452.190674	37.950470	-1560.948486	318.985809	77.604828	-1649.718994	98.169411	1.192686	-1700.855469	98.353165	-61.472744	-1536.346313	56.980343	-20.014687	-1666.472290	606.410461	-302.481873	-1680.266846	439.291962	-219.692139	-1705.441895	258.953491	-278.059998	-1747.597534	59.224049	-186.516724	-1812.007568	41.901352	-138.575272	-1632.454834	43.209484	-145.643097
5	0.04000000	-1562.515747	1309.633301	62.615276	-1579.686890	1321.193970	-271.833984	-1650.766968	1382.726685	-90.653175	-1513.460938	1275.531616	-115.112930	-1678.591797	1001.020203	147.301697	-1626.336670	1004.018005	-381.028137	-1625.796082	753.663513	136.320469	-1499.159241	793.510345	-404.914642	-1547.046509	905.962891	19.604578	-1598.693115	920.071411	-281.958008	-1773.786255	931.082886	-93.156082	-1749.197754	1043.825806	-97.487450	-1481.412842	1016.623230	-110.768555	-1549.593872	582.575439	85.896141	-1481.765137	453.762878	36.224262	-1533.446045	317.197113	76.836113	-1606.799927	90.105370	1.870864	-1658.333862	86.320518	-60.580761	-1490.930054	56.994827	-19.249931	-1658.968018	606.052612	-302.452026	-1676.715210	439.370026	-219.422455	-1703.858154	259.123962	-277.794373	-1747.440918	59.558125	-186.247330	-1811.959839	42.596367	-138.324203	-1632.554688	43.188522	-145.628555
6	0.05000000	-1551.263550	1308.753052	62.682102	-1566.092163	1319.952393	-271.323395	-1638.750732	1381.734619	-91.251343	-1502.251099	1274.230713	-115.144402	-1668.764038	1000.402100	146.891434	-1608.962891	1003.124756	-382.150299	-1616.815186	752.856354	136.034668	-1477.015259	795.439209	-405.352539	-1534.342285	905.350891	18.998991	-1587.250366	918.893188	-282.588776	-1761.793457	930.161255	-92.637207	-1737.177490	1042.983154	-97.304596	-1469.700317	1015.924500	-110.641312	-1533.493774	582.588440	84.167252	-1463.312378	454.991974	34.481907	-1506.320557	315.426453	76.034317	-1563.523193	82.995377	2.385735	-1615.166992	75.390816	-59.811131	-1445.789673	57.940220	-18.783958	-1651.698975	605.693237	-302.498749	-1673.108765	439.503174	-219.153946	-1702.290894	259.361053	-277.500305	-1747.300903	60.003143	-185.875229	-1811.892334	43.463673	-137.902878	-1632.644165	43.167053	-145.612076
7	0.06000000	-1539.919678	1307.722290	62.762039	-1552.370239	1318.596558	-270.704132	-1626.762329	1380.589722	-91.768723	-1490.996460	1272.799316	-115.185081	-1658.666870	999.644897	146.647842	-1591.715088	1002.155762	-383.150726	-1607.486816	751.932526	135.957973	-1455.115723	797.359436	-405.672638	-1521.628784	904.523682	18.383316	-1575.613892	917.646301	-283.073944	-1749.705322	929.125977	-92.084053	-1725.102295	1041.979858	-97.003891	-1457.869873	1015.027283	-110.534302	-1518.081543	582.258972	82.412430	-1445.755615	455.838379	32.730461	-1479.598145	313.686462	75.186226	-1520.288818	77.015701	2.671148	-1571.760254	65.817123	-59.267971	-1401.266968	59.816803	-18.616329	-1644.666626	605.356689	-302.616821	-1669.363403	439.696381	-218.878784	-1700.689331	259.682434	-277.160370	-1747.172852	60.588161	-185.377228	-1811.785156	44.541492	-137.274948	-1632.689209	43.143833	-145.569824
8	0.07000000	-1528.467041	1306.565552	62.858326	-1538.708984	1317.164551	-270.071869	-1614.794312	1379.315430	-92.193581	-1479.597290	1271.265137	-115.213547	-1648.282104	998.764282	146.566483	-1574.628540	1001.130005	-384.025726	-1597.797119	750.907593	136.080166	-1433.500244	799.285461	-405.866928	-1508.899048	903.492920	17.746677	-1563.842529	916.368042	-283.442657	-1737.512207	927.978271	-91.500862	-1712.972656	1040.826416	-96.602348	-1445.833008	1013.965759	-110.374252	-1503.393555	581.552307	80.673370	-1428.989746	456.286072	30.969915	-1453.368652	312.016174	74.267418	-1477.554321	72.280891	2.678192	-1528.584106	57.780952	-59.044003	-1357.740234	62.567863	-18.704891	-1637.824097	605.063904	-302.795380	-1665.380615	439.951141	-218.589218	-1698.995605	260.108734	-276.763489	-1747.045166	61.341209	-184.745789	-1811.618652	45.866608	-136.426834	-1632.672729	43.121498	-145.490097
9	0.08000000	-1516.894165	1305.309570	62.976326	-1525.317749	1315.692383	-269.541962	-1602.831421	1377.937012	-92.512444	-1467.974976	1269.662842	-115.201668	-1637.596436	997.777161	146.643021	-1557.739868	1000.066467	-384.773193	-1587.731689	749.796417	136.394245	-1412.209717	801.229218	-405.926788	-1496.134399	902.278809	17.080143	-1551.988770	915.090088	-283.735657	-1725.202026	926.718384	-90.893089	-1700.783325	1039.536011	-96.115662	-1433.572021	1012.759460	-110.137558	-1489.415283	580.450073	79.016235	-1412.895386	456.346008	29.198080	-1427.807739	310.472382	73.241890	-1435.818359	68.830376	2.380459	-1486.156006	51.369560	-59.208218	-1315.611450	66.081512	-18.983158	-1631.076172	604.828857	-303.017822	-1661.064087	440.264954	-218.281921	-1697.154297	260.662323	-276.311646	-1746.897827	62.287964	-183.995651	-1811.375244	47.470066	-135.376862	-1632.588135	43.105045	-145.370422
10	0.09000000	-1505.191406	1303.979492	63.119656	-1512.328491	1314.210327	-269.198120	-1590.855103	1376.478638	-92.712784	-1456.098755	1268.026367	-115.126137	-1626.599854	996.699158	146.872147	-1541.085205	998.984009	-385.392212	-1577.280212	748.611237	136.895714	-1391.285217	803.197083	-405.843155	-1483.323242	900.913452	16.382647	-1540.086670	913.834534	-283.992188	-1712.759766	925.346619	-90.267982	-1688.520508	1038.122803	-95.557625	-1421.175415	1011.412354	-109.852219	-1476.085815	578.947021	77.514297	-1397.354370	456.048950	27.411633	-1403.172852	309.106750	72.066597	-1395.596313	66.619484	1.771899	-1445.017090	46.560692	-59.802467	-1275.291260	70.193840	-19.386328	-1624.295166	604.656067	-303.264343	-1656.332642	440.632141	-217.961411	-1695.118042	261.363708	-275.825104	-1746.703857	63.448830	-183.165329	-1811.040649	49.374260	-134.178879	-1632.434692	43.099892	-145.216583
11	0.10000000	-1493.348999	1302.596802	63.287304	-1499.765747	1312.742554	-269.066437	-1578.852295	1374.962891	-92.787514	-1443.990356	1266.385132	-114.980194	-1615.284424	995.543945	147.246811	-1524.699219	997.900513	-385.883575	-1566.437500	747.361633	137.580757	-1370.766479	805.191132	-405.609406	-1470.464844	899.436584	15.664485	-1528.133179	912.615479	-284.233948	-1700.168091	923.864441	-89.634010	-1676.163818	1036.600586	-94.940842	-1408.776489	1009.928894	-109.566063	-1463.318237	577.045410	76.216278	-1382.257446	455.432434	25.602905	-1379.763062	307.934845	70.698967	-1357.393677	65.518059	0.857495	-1405.704346	43.219460	-60.847904	-1237.182007	74.693947	-19.875307	-1617.342285	604.539612	-303.515350	-1651.127319	441.045105	-217.642487	-1692.846069	262.227203	-275.342773	-1746.432373	64.835884	-182.313004	-1810.604370	51.593498	-132.916763	-1632.215210	43.111065	-145.042480
